<svg id="SvgjsSvg1006" width="288" height="288" xmlns="http://www.w3.org/2000/svg" version="1.1" xmlns:xlink="http://www.w3.org/1999/xlink" xmlns:svgjs="http://svgjs.com/svgjs"><defs id="SvgjsDefs1007"></defs><g id="SvgjsG1008"><svg xmlns="http://www.w3.org/2000/svg" fill-rule="evenodd" clip-rule="evenodd" image-rendering="optimizeQuality" shape-rendering="geometricPrecision" text-rendering="geometricPrecision" viewBox="0 0 512 512" width="288" height="288"><path fill="#ffffff" d="M 232.5,-0.5 C 247.833,-0.5 263.167,-0.5 278.5,-0.5C 378.272,12.4494 449.438,64.4494 492,155.5C 502.136,180.379 508.636,206.046 511.5,232.5C 511.5,247.833 511.5,263.167 511.5,278.5C 498.551,378.271 446.551,449.438 355.5,492C 330.623,502.135 304.957,508.635 278.5,511.5C 263.5,511.5 248.5,511.5 233.5,511.5C 198.751,507.644 165.585,497.977 134,482.5C 99.1969,492.739 64.3636,502.406 29.5,511.5C 24.5,511.5 19.5,511.5 14.5,511.5C 7.83333,508.167 2.83333,503.167 -0.5,496.5C -0.5,491.833 -0.5,487.167 -0.5,482.5C 12.7839,453.257 26.1173,423.924 39.5,394.5C 17.1788,358.868 3.84547,320.201 -0.5,278.5C -0.5,263.167 -0.5,247.833 -0.5,232.5C 12.4486,132.729 64.4486,61.5622 155.5,19C 180.379,8.86392 206.046,2.36392 232.5,-0.5 Z M 244.5,44.5 C 330.531,44.15 395.697,80.4833 440,153.5C 472.526,215.732 474.859,279.066 447,343.5C 407.289,421.216 343.622,462.216 256,466.5C 216.742,466.079 180.242,455.912 146.5,436C 143.567,435.107 140.567,434.607 137.5,434.5C 113.209,440.281 89.042,446.615 65,453.5C 64.5,453.167 64,452.833 63.5,452.5C 71.3333,435.5 79.1667,418.5 87,401.5C 89,395.167 89,388.833 87,382.5C 39.9697,315.137 32.303,243.47 64,167.5C 101.555,93.464 161.721,52.464 244.5,44.5 Z" opacity=".991" class="color39ae41 svgShape"></path><path fill="#ffffff" d="M 166.5,138.5 C 174.932,137.358 182.598,139.192 189.5,144C 209.125,162.548 216.959,185.048 213,211.5C 208.487,218.524 203.487,225.191 198,231.5C 197.077,233.034 196.577,234.701 196.5,236.5C 213.796,270.293 239.796,295.126 274.5,311C 278.517,312.926 282.684,314.426 287,315.5C 290.775,314.735 293.775,312.735 296,309.5C 299.333,304.167 302.667,298.833 306,293.5C 314.91,283.258 325.743,280.758 338.5,286C 354.898,290.096 368.398,298.596 379,311.5C 385.17,322.977 384.837,334.31 378,345.5C 366.176,365.166 348.676,374.499 325.5,373.5C 300.622,372.042 277.289,365.208 255.5,353C 216.148,330.989 182.982,301.822 156,265.5C 144.771,249.707 136.771,232.373 132,213.5C 125.685,188.042 131.852,166.208 150.5,148C 155.466,144.024 160.8,140.858 166.5,138.5 Z" opacity=".991" class="color39ae41 svgShape"></path></svg></g></svg>